{"title":"Pacific.Rim.2013.HDRip.XviD-DiN","uid":8985203,"size":1469136013,"categoryP":"video","categoryS":"movies","magnet":"?xt=urn:btih:5fac7ae6a7e9464c119fd78912aa49f215dd7c05&amp;dn=Pacific.Rim.2013.HDRip.XviD-DiN&amp;tr=udp%3A%2F%2Ftracker.openbittorrent.com%3A80&amp;tr=udp%3A%2F%2Fopen.demonii.com%3A1337&amp;tr=udp%3A%2F%2Ftracker.coppersurfer.tk%3A6969&amp;tr=udp%3A%2F%2Fexodus.desync.com%3A6969","seeders":1,"leechers":0,"uploader":"xxxlavalxxx","files":-1,"time":1380654434,"description":" &lt;a href=&quot;http://www.imdb.com/title/tt1663662/&quot; rel=&quot;nofollow&quot; target=&quot;_NEW&quot;&gt;http://www.imdb.com/title/tt1663662/&lt;/a&gt;\n\n\n\n\n As a war between humankind and monstrous sea creatures wages on, a former pilot and a trainee are paired up to drive a seemingly obsolete special weapon in a desperate effort to save the world from the apocalypse. \n\n\n\n Director:\n Guillermo del Toro \n\n Writers:\n Travis Beacham (screenplay), Guillermo del Toro (screenplay)\n\n Stars:\n Charlie Hunnam, Idris Elba, Rinko Kikuchi \n\n Genres:\n   Action |  Adventure |  Fantasy |  Sci-Fi \n\n Country:\n USA \n\n Language:\n English | Japanese | Cantonese\n\n\nGeneral\nComplete name                            : Pacific.Rim.2013.HDRip.XviD-DiN\nFormat                                   : AVI\nFormat/Info                              : Audio Video Interleave\nFile size                                : 1.37 GiB\nDuration                                 : 2h 11mn\nOverall bit rate                         : 1 492 Kbps\n\n\n\nVideo\nID                                       : 0\nFormat                                   : MPEG-4 Visual\nFormat profile                           : Advanced Simple@L5\nFormat settings, BVOP                    : 2\nFormat settings, QPel                    : No\nFormat settings, GMC                     : No warppoints\nFormat settings, Matrix                  : Default (H.263)\nCodec ID                                 : XVID\nCodec ID/Hint                            : XviD\nDuration                                 : 2h 11mn\nBit rate                                 : 1 359 Kbps\nWidth                                    : 624 pixels\nHeight                                   : 352 pixels\nDisplay aspect ratio                     : 16:9\nFrame rate                               : 23.976 fps\nColor space                              : YUV\nChroma subsampling                       : 4:2:0\nBit depth                                : 8 bits\nScan type                                : Progressive\nCompression mode                         : Lossy\nBits/(Pixel*Frame)                       : 0.258\nStream size                              : 1.25 GiB (91%)\nWriting library                          : XviD 1.2.1 (UTC 2008-12-04)\n\n\n\nAudio\nID                                       : 1\nFormat                                   : MPEG Audio\nFormat version                           : Version 1\nFormat profile                           : Layer 3\nMode                                     : Joint stereo\nMode extension                           : MS Stereo\nCodec ID                                 : 55\nCodec ID/Hint                            : MP3\nDuration                                 : 2h 11mn\nBit rate mode                            : Constant\nBit rate                                 : 128 Kbps\nChannel(s)                               : 2 channels\nSampling rate                            : 48.0 KHz\nCompression mode                         : Lossy\nStream size                              : 120 MiB (9%)\nAlignment                                : Aligned on interleaves\nInterleave, duration                     : 167 ms (4.00 video frames)\nInterleave, preload duration             : 216 ms\nTitle                                    : Pacific.Rim.2013.1080p.WEB-DL.H264-PublicHD\n\n &lt;a href=&quot;\nhttp://i.imgur.com/Wkw97Pi.jpg&quot; rel=&quot;nofollow&quot; target=&quot;_NEW&quot;&gt;\nhttp://i.imgur.com/Wkw97Pi.jpg&lt;/a&gt; &lt;a href=&quot;\nhttp://i.imgur.com/hr5p9NC.jpg&quot; rel=&quot;nofollow&quot; target=&quot;_NEW&quot;&gt;\nhttp://i.imgur.com/hr5p9NC.jpg&lt;/a&gt; &lt;a href=&quot;\nhttp://i.imgur.com/ootFe9S.jpg&quot; rel=&quot;nofollow&quot; target=&quot;_NEW&quot;&gt;\nhttp://i.imgur.com/ootFe9S.jpg&lt;/a&gt; &lt;a href=&quot;\nhttp://i.imgur.com/PD5zVtD.jpg&quot; rel=&quot;nofollow&quot; target=&quot;_NEW&quot;&gt;\nhttp://i.imgur.com/PD5zVtD.jpg&lt;/a&gt;\n","torrent":{"xt":"urn:btih:5fac7ae6a7e9464c119fd78912aa49f215dd7c05","amp;dn":"Pacific.Rim.2013.HDRip.XviD-DiN","amp;tr":["udp%3A%2F%2Ftracker.openbittorrent.com%3A80","udp%3A%2F%2Fopen.demonii.com%3A1337","udp%3A%2F%2Ftracker.coppersurfer.tk%3A6969","udp%3A%2F%2Fexodus.desync.com%3A6969"],"infoHash":"5fac7ae6a7e9464c119fd78912aa49f215dd7c05","infoHashBuffer":{"type":"Buffer","data":[95,172,122,230,167,233,70,76,17,159,215,137,18,170,73,242,21,221,124,5]},"announce":[],"urlList":[]}}